<?xml version="1.0" encoding="UTF-8" standalone="no"?>
<svg
   xmlns:dc="http://purl.org/dc/elements/1.1/"
   xmlns:cc="http://creativecommons.org/ns#"
   xmlns:rdf="http://www.w3.org/1999/02/22-rdf-syntax-ns#"
   xmlns:svg="http://www.w3.org/2000/svg"
   xmlns="http://www.w3.org/2000/svg"
   xmlns:sodipodi="http://sodipodi.sourceforge.net/DTD/sodipodi-0.dtd"
   xmlns:inkscape="http://www.inkscape.org/namespaces/inkscape"
   width="200"
   height="200"
   viewBox="0 0 200 200"
   version="1.1"
   id="svg34"
   sodipodi:docname="logo.svg"
   inkscape:version="1.0rc1 (09960d6f05, 2020-04-09)">
  <metadata
     id="metadata40">
    <rdf:RDF>
      <cc:Work
         rdf:about="">
        <dc:format>image/svg+xml</dc:format>
        <dc:type
           rdf:resource="http://purl.org/dc/dcmitype/StillImage" />
      </cc:Work>
    </rdf:RDF>
  </metadata>
  <defs
     id="defs38">
    <filter
       height="1.0177964"
       y="-0.0088981773"
       width="1.0214181"
       x="-0.010709074"
       id="filter869"
       style="color-interpolation-filters:sRGB"
       inkscape:collect="always">
      <feGaussianBlur
         id="feGaussianBlur871"
         stdDeviation="0.73532988"
         inkscape:collect="always" />
    </filter>
  </defs>
  <sodipodi:namedview
     inkscape:document-rotation="0"
     pagecolor="#ffffff"
     bordercolor="#666666"
     borderopacity="1"
     objecttolerance="10"
     gridtolerance="10"
     guidetolerance="10"
     inkscape:pageopacity="0"
     inkscape:pageshadow="2"
     inkscape:window-width="1920"
     inkscape:window-height="1137"
     id="namedview36"
     showgrid="false"
     inkscape:zoom="3.337544"
     inkscape:cx="130.72678"
     inkscape:cy="74.80923"
     inkscape:window-x="-8"
     inkscape:window-y="-8"
     inkscape:window-maximized="1"
     inkscape:current-layer="svg34" />
  <g
     style="filter:url(#filter869)"
     id="g44">
    <path
       id="path23"
       style="fill:#000000;stroke-width:0.698536;fill-opacity:1"
       d="M 198.32812 19.921875 C 197.1307 19.921875 196.74257 20.883037 196.17773 25.248047 C 195.785 28.283047 193.64236 38.362374 192.41797 42.933594 C 192.15608 43.911474 189.8778 46.237392 187.07422 48.388672 C 182.52088 51.882612 181.1119 54.025558 182.96289 54.642578 C 183.38976 54.784868 185.06884 53.788617 186.69531 52.429688 C 188.32179 51.070757 189.91305 49.958984 190.23047 49.958984 C 192.43393 49.958984 196.50745 44.171111 196.51758 41.025391 C 196.52358 39.215351 197.1515 34.302762 197.91406 30.107422 C 199.56093 21.047402 199.60728 19.921875 198.32812 19.921875 z M 179.68164 56.722656 C 179.12159 56.726049 178.72273 56.945847 178.55859 57.40625 C 178.1924 58.43344 180.51186 60.66807 184.98047 63.59375 C 191.89228 68.11901 193.26932 70.97268 196.26953 86.972656 C 196.66899 89.102916 197.25 90.181977 198.08008 90.341797 C 199.83379 90.679537 199.60659 88.413487 196.70898 76.607422 L 196.70898 76.605469 L 194.24805 66.580078 L 191.04297 64.382812 C 189.28021 63.173642 186.53595 61.008879 184.94531 59.574219 C 182.92646 57.753279 180.91374 56.715193 179.68164 56.722656 z M 176.69336 64.853516 C 176.51913 64.856739 176.32863 64.964323 176.12109 65.171875 C 175.0392 66.253775 174.36247 98.855469 175.42188 98.855469 C 175.84108 98.855469 177.32314 100.34696 178.71484 102.17188 C 180.10653 103.9968 182.56251 106.90589 184.17383 108.63477 C 191.8738 116.89636 192.42034 118.42762 194.38672 137.27344 C 195.76207 150.45552 196.01392 151.59375 197.55273 151.59375 C 198.79326 151.59375 199.80961 149.90646 199.04492 149.11523 C 198.87737 148.94186 198.24249 144.39812 197.63477 139.01953 C 195.56263 120.68085 194.99899 117.44756 193.5 115.26953 C 192.30592 113.53464 185.85974 105.66789 184.62891 104.44336 C 184.43585 104.25126 182.86462 102.23064 181.13672 99.953125 L 177.99414 95.8125 L 178.17578 82.025391 C 178.33359 69.945258 177.91297 64.830949 176.69336 64.853516 z " />
    <path
       id="path25"
       style="fill:#000000;fill-opacity:1;stroke:none;stroke-width:1px;stroke-linecap:butt;stroke-linejoin:miter;stroke-opacity:1"
       d="m 51.914062,8.7050781 c -11.464379,-0.0216 -15.622591,0.7085916 -16.826171,2.9570309 -3.31126,6.18722 8.297716,27.393963 20.378906,37.226563 27.9687,22.76181 54.974743,29.054178 73.941403,17.226562 1.75472,-1.09426 5.07582,-3.042405 7.38086,-4.328125 3.7153,-2.07221 7.99963,-5.009957 11.70117,-8.023437 1.48921,-1.21259 1.56798,-2.316084 0.20313,-2.839844 v -0.002 c -0.56044,-0.21507 -2.21138,0.02556 -3.66797,0.535156 -5.34283,1.86921 -22.7857,1.229928 -28.49414,-1.044922 -8.76384,-3.49226 -13.21983,-5.576335 -16.19141,-7.572265 -1.606,-1.07854 -3.286051,-1.960938 -3.734371,-1.960938 -1.37423,0 -10.503612,-9.199014 -13.169922,-13.271484 -3.22291,-4.92301 -3.651963,-5.617677 -5.251953,-8.466797 C 73.030904,9.9639453 69.944693,8.7393081 51.914062,8.7050781 Z"
       inkscape:connector-curvature="0" />
    <path
       id="path27"
       style="fill:#000000;fill-opacity:1;stroke:none;stroke-width:1px;stroke-linecap:butt;stroke-linejoin:miter;stroke-opacity:1"
       d="m 100.14062,8.0839844 c -7.506902,0.096187 -14.692795,0.9371158 -15.492182,2.1972656 -1.21874,1.92147 0.595215,9.732922 3.478515,14.982422 2.28904,4.16775 16.795487,15.509219 22.589847,17.662109 1.27706,0.47439 3.33641,1.299945 4.57617,1.833985 13.32808,5.7412 44.71535,5.252271 38.85742,-0.605469 -0.26414,-0.26414 -1.76325,-0.47534 -3.33203,-0.46875 -13.29035,0.0558 -24.91389,-10.488043 -30.04883,-27.257813 -1.78386,-5.8253 -2.8171,-6.8011178 -8.08008,-7.6425778 -3.42554,-0.5477137 -8.04468,-0.7588844 -12.54883,-0.7011718 z"
       inkscape:connector-curvature="0" />
    <path
       id="path29"
       style="fill:#000000;stroke:none;stroke-width:1px;stroke-linecap:butt;stroke-linejoin:miter;stroke-opacity:1;fill-opacity:1"
       d="M 146.5957 75.013672 C 144.92379 75.236839 144.26545 78.167028 143.91016 84.537109 C 143.35271 94.531769 140.51881 103.90802 134.09961 117.00977 C 132.31331 120.65557 130.85156 123.97257 130.85156 124.37891 C 130.85156 124.78519 129.40931 127.30327 127.64648 129.97461 C 125.88365 132.64595 123.76213 136.03293 122.93164 137.50195 C 116.30672 149.22199 112.09286 155.69189 105.35547 164.48438 C 98.023639 174.05292 92.515029 179.84894 85.074219 185.82422 C 81.725639 188.51358 78.010206 191.5476 76.816406 192.56641 L 74.644531 194.41797 L 75.853516 196.95312 C 77.656296 200.73353 78.453986 200.64048 85.416016 195.82812 C 88.929446 193.39966 92.496567 190.94153 93.341797 190.36523 C 94.186677 189.78894 95.836576 188.37329 97.009766 187.2207 C 98.182959 186.06811 101.12407 183.39627 103.54492 181.2832 C 107.86879 177.50915 116.23758 168.48881 119.67578 163.89453 C 120.63627 162.61125 122.28526 160.5338 123.3418 159.2793 C 124.39833 158.02487 125.26367 156.7067 125.26367 156.34961 C 125.26367 155.99252 125.82488 155.09048 126.50977 154.3457 C 127.19469 153.60092 128.27157 151.89072 128.9043 150.54492 C 129.53703 149.19919 131.0898 146.68486 132.35352 144.95703 C 133.61724 143.2292 136.18323 138.82941 138.05664 135.17969 C 139.93004 131.52984 141.84797 128.07238 142.31836 127.49609 C 142.78875 126.9198 143.2066 124.30218 144.49219 122.43164 C 146.65821 119.28006 147.7899 114.88181 149.61133 111.36328 C 150.76238 109.28695 153.06342 104.93109 154.72461 101.68359 C 156.43358 98.342632 159.11006 94.433018 160.88867 92.679688 C 163.70196 89.906707 167.88019 84.399171 167.86133 83.488281 C 167.85733 83.296298 167.46141 82.364655 166.98242 81.417969 C 166.98242 81.417969 166.98242 81.416016 166.98242 81.416016 C 166.15456 79.780482 165.79575 79.692684 159.77539 79.669922 C 153.63798 79.646722 153.35805 79.576063 150.85352 77.376953 C 148.96668 75.720428 147.59885 74.879772 146.5957 75.013672 z " />
    <path
       id="path31"
       style="fill:#000000;stroke:none;stroke-width:1px;stroke-linecap:butt;stroke-linejoin:miter;stroke-opacity:1;fill-opacity:1"
       d="M 161.92188 40.548828 C 160.82963 40.539001 159.81279 41.164117 158.37891 42.419922 C 151.15744 48.743492 146.52714 69.161038 151.18359 74.146484 C 157.83743 81.269464 167.7829 79.054133 172.61328 69.373047 C 176.33278 61.919667 179.12148 45.493093 176.79297 44.751953 C 176.30646 44.597103 174.09013 44.341787 171.86914 44.185547 C 169.26856 44.002607 167.14976 43.399031 165.91797 42.488281 C 164.18084 41.203986 163.01412 40.558656 161.92188 40.548828 z " />
    <path
       id="path33"
       style="fill:#000000;stroke:none;stroke-width:1px;stroke-linecap:butt;stroke-linejoin:miter;stroke-opacity:1;fill-opacity:1"
       d="M 175.00195 15.291016 C 169.00434 15.435522 162.72571 21.336107 162.80078 30.853516 C 162.85878 38.213296 163.21213 39.164693 166.70703 41.376953 C 176.65559 47.673563 188.38065 36.252809 184.79297 23.761719 L 184.79492 23.761719 C 183.07882 17.786439 179.10558 15.192143 175.00195 15.291016 z " />
    <path
       id="path35"
       style="fill:#000000;stroke:none;stroke-width:1px;stroke-linecap:butt;stroke-linejoin:miter;stroke-opacity:1;fill-opacity:1"
       d="M 159.42188 1.3046875 C 159.29761 1.2892575 159.19019 1.29789 159.10156 1.3320312 C 157.84629 1.8156212 157.90632 1.9915525 159.92188 3.7265625 C 161.11909 4.7571825 163.30086 7.6453085 164.76953 10.142578 C 168.73128 16.878988 172.42124 17.483586 168.88281 10.816406 C 166.91274 7.1045535 161.2859 1.5361373 159.42188 1.3046875 z M 154.8125 1.7617188 C 153.19567 1.7617188 153.86654 3.4480468 156.53516 6.0917969 C 157.96939 7.5126869 159.88034 10.184527 160.7832 12.029297 C 161.68606 13.874057 162.65251 15.835222 162.92969 16.388672 C 165.1597 20.841142 165.60684 16.089903 163.41016 11.283203 C 161.79249 7.7434335 156.3905 1.7617188 154.8125 1.7617188 z " />
  </g>
  <path
     id="path2830"
     style="fill:#46cbae;stroke-width:0.698536;fill-opacity:1"
     d="M 198.32812 19.921875 C 197.1307 19.921875 196.74257 20.883037 196.17773 25.248047 C 195.785 28.283047 193.64236 38.362374 192.41797 42.933594 C 192.15608 43.911474 189.8778 46.237392 187.07422 48.388672 C 182.52088 51.882612 181.1119 54.025558 182.96289 54.642578 C 183.38976 54.784868 185.06884 53.788617 186.69531 52.429688 C 188.32179 51.070757 189.91305 49.958984 190.23047 49.958984 C 192.43393 49.958984 196.50745 44.171111 196.51758 41.025391 C 196.52358 39.215351 197.1515 34.302762 197.91406 30.107422 C 199.56093 21.047402 199.60728 19.921875 198.32812 19.921875 z M 179.68164 56.722656 C 179.12159 56.726049 178.72273 56.945847 178.55859 57.40625 C 178.1924 58.43344 180.51186 60.66807 184.98047 63.59375 C 191.89228 68.11901 193.26932 70.97268 196.26953 86.972656 C 196.66899 89.102916 197.25 90.181977 198.08008 90.341797 C 199.83379 90.679537 199.60659 88.413487 196.70898 76.607422 L 196.70898 76.605469 L 194.24805 66.580078 L 191.04297 64.382812 C 189.28021 63.173642 186.53595 61.008879 184.94531 59.574219 C 182.92646 57.753279 180.91374 56.715193 179.68164 56.722656 z M 176.69336 64.853516 C 176.51913 64.856739 176.32863 64.964323 176.12109 65.171875 C 175.0392 66.253775 174.36247 98.855469 175.42188 98.855469 C 175.84108 98.855469 177.32314 100.34696 178.71484 102.17188 C 180.10653 103.9968 182.56251 106.90589 184.17383 108.63477 C 191.8738 116.89636 192.42034 118.42762 194.38672 137.27344 C 195.76207 150.45552 196.01392 151.59375 197.55273 151.59375 C 198.79326 151.59375 199.80961 149.90646 199.04492 149.11523 C 198.87737 148.94186 198.24249 144.39812 197.63477 139.01953 C 195.56263 120.68085 194.99899 117.44756 193.5 115.26953 C 192.30592 113.53464 185.85974 105.66789 184.62891 104.44336 C 184.43585 104.25126 182.86462 102.23064 181.13672 99.953125 L 177.99414 95.8125 L 178.17578 82.025391 C 178.33359 69.945258 177.91297 64.830949 176.69336 64.853516 z " />
  <rect
     style="fill:#214b90;fill-opacity:1;stroke-width:0.3;stroke-linecap:round"
     id="rect888"
     width="22.457626"
     height="22.033897"
     x="-29.878935"
     y="0.23057406" />
  <rect
     y="26.671255"
     x="-29.878935"
     height="22.033897"
     width="22.457626"
     id="rect888-2"
     style="fill:#1fa588;fill-opacity:1;stroke-width:0.3;stroke-linecap:round" />
  <rect
     y="53.111931"
     x="-29.878935"
     height="22.033897"
     width="22.457626"
     id="rect888-9"
     style="fill:#1a8870;fill-opacity:1;stroke-width:0.3;stroke-linecap:round" />
  <rect
     y="79.552612"
     x="-29.878935"
     height="22.033897"
     width="22.457626"
     id="rect888-4"
     style="fill:#46cbae;fill-opacity:1;stroke-width:0.3;stroke-linecap:round" />
  <rect
     y="105.99329"
     x="-29.878935"
     height="22.033897"
     width="22.457626"
     id="rect888-6"
     style="fill:#66d4bd;fill-opacity:1;stroke-width:0.3;stroke-linecap:round" />
  <rect
     y="132.43398"
     x="-29.878935"
     height="22.033897"
     width="22.457626"
     id="rect888-25"
     style="fill:#92e0d0;fill-opacity:1;stroke-width:0.3;stroke-linecap:round" />
  <path
     id="path948"
     style="fill:#1a8870;fill-opacity:1;stroke:none;stroke-width:1px;stroke-linecap:butt;stroke-linejoin:miter;stroke-opacity:1"
     d="m 51.914062,8.7050781 c -11.464379,-0.0216 -15.622591,0.7085916 -16.826171,2.9570309 -3.31126,6.18722 8.297716,27.393963 20.378906,37.226563 27.9687,22.76181 54.974743,29.054178 73.941403,17.226562 1.75472,-1.09426 5.07582,-3.042405 7.38086,-4.328125 3.7153,-2.07221 7.99963,-5.009957 11.70117,-8.023437 1.48921,-1.21259 1.56798,-2.316084 0.20313,-2.839844 v -0.002 c -0.56044,-0.21507 -2.21138,0.02556 -3.66797,0.535156 -5.34283,1.86921 -22.7857,1.229928 -28.49414,-1.044922 -8.76384,-3.49226 -13.21983,-5.576335 -16.19141,-7.572265 -1.606,-1.07854 -3.286051,-1.960938 -3.734371,-1.960938 -1.37423,0 -10.503612,-9.199014 -13.169922,-13.271484 -3.22291,-4.92301 -3.651963,-5.617677 -5.251953,-8.466797 C 73.030904,9.9639453 69.944693,8.7393081 51.914062,8.7050781 Z"
     inkscape:connector-curvature="0" />
  <path
     id="path956"
     style="fill:#46cbae;fill-opacity:1;stroke:none;stroke-width:1px;stroke-linecap:butt;stroke-linejoin:miter;stroke-opacity:1"
     d="m 100.14062,8.0839844 c -7.506902,0.096187 -14.692795,0.9371158 -15.492182,2.1972656 -1.21874,1.92147 0.595215,9.732922 3.478515,14.982422 2.28904,4.16775 16.795487,15.509219 22.589847,17.662109 1.27706,0.47439 3.33641,1.299945 4.57617,1.833985 13.32808,5.7412 44.71535,5.252271 38.85742,-0.605469 -0.26414,-0.26414 -1.76325,-0.47534 -3.33203,-0.46875 -13.29035,0.0558 -24.91389,-10.488043 -30.04883,-27.257813 -1.78386,-5.8253 -2.8171,-6.8011178 -8.08008,-7.6425778 -3.42554,-0.5477137 -8.04468,-0.7588844 -12.54883,-0.7011718 z"
     inkscape:connector-curvature="0" />
  <path
     inkscape:connector-curvature="0"
     id="path983"
     style="font-style:normal;font-variant:normal;font-weight:normal;font-stretch:normal;font-size:64px;line-height:1.25;font-family:'Bauhaus 93';-inkscape-font-specification:'Bauhaus 93, Normal';font-variant-ligatures:normal;font-variant-caps:normal;font-variant-numeric:normal;font-variant-east-asian:normal;letter-spacing:0px;word-spacing:0px;writing-mode:lr-tb;fill:#214b90;fill-opacity:1"
     d="m 74.48727,169.75276 -7.743147,-8.07489 q 2.774334,-2.66035 0.741217,-4.78058 -1.860086,-1.93978 -3.980308,0.0933 -2.142778,2.05475 0.409433,4.7163 l 19.292979,20.11956 -9.157556,8.78133 -18.384566,-19.17222 q -2.855015,-2.97733 -4.085398,-5.43435 -1.229456,-2.5012 -1.36481,-5.53201 -0.127941,-3.38428 1.2915,-6.78031 1.419442,-3.39604 4.013331,-5.88336 4.691556,-4.49881 10.899936,-4.39071 6.230935,0.0865 10.708117,4.75548 4.34741,4.53366 4.186466,10.09998 -0.129121,5.10284 -5.407121,10.164 z" />
  <path
     inkscape:connector-curvature="0"
     id="path985"
     style="font-style:normal;font-variant:normal;font-weight:normal;font-stretch:normal;font-size:64px;line-height:1.25;font-family:'Bauhaus 93';-inkscape-font-specification:'Bauhaus 93, Normal';font-variant-ligatures:normal;font-variant-caps:normal;font-variant-numeric:normal;font-variant-east-asian:normal;letter-spacing:0px;word-spacing:0px;writing-mode:lr-tb;fill:#214b90;fill-opacity:1"
     d="m 75.760514,127.75973 32.777626,27.29804 -8.11942,9.74924 -32.777621,-27.29803 z" />
  <path
     inkscape:connector-curvature="0"
     id="path987"
     style="font-style:normal;font-variant:normal;font-weight:normal;font-stretch:normal;font-size:64px;line-height:1.25;font-family:'Bauhaus 93';-inkscape-font-specification:'Bauhaus 93, Normal';font-variant-ligatures:normal;font-variant-caps:normal;font-variant-numeric:normal;font-variant-east-asian:normal;letter-spacing:0px;word-spacing:0px;writing-mode:lr-tb;fill:#214b90;fill-opacity:1"
     d="m 117.83741,117.00325 10.65094,6.23904 -13.93124,23.7826 -15.246496,-24.79394 -0.51808,-0.84673 q -0.60551,-1.00659 -1.46837,-1.51204 -2.184116,-1.2794 -3.684646,1.28222 -0.584417,0.99768 -0.271676,2.19495 0.301572,1.1545 1.299255,1.73892 1.132505,0.66339 2.617917,0.22971 l 5.648756,9.64683 q -3.571036,1.89201 -7.334206,1.82443 -3.76317,-0.0676 -7.187648,-2.07355 -5.311986,-3.11163 -6.891488,-9.07099 -1.606467,-5.97515 1.505159,-11.28714 3.127421,-5.33895 9.05519,-6.86452 5.943567,-1.55254 11.309473,1.59068 3.07394,1.80063 4.91091,4.72373 l 5.93498,9.34368 z" />
  <path
     inkscape:connector-curvature="0"
     id="path989"
     style="font-style:normal;font-variant:normal;font-weight:normal;font-stretch:normal;font-size:64px;line-height:1.25;font-family:'Bauhaus 93';-inkscape-font-specification:'Bauhaus 93, Normal';font-variant-ligatures:normal;font-variant-caps:normal;font-variant-numeric:normal;font-variant-east-asian:normal;letter-spacing:0px;word-spacing:0px;writing-mode:lr-tb;fill:#214b90;fill-opacity:1"
     d="m 121.56663,98.714485 -10.66494,-3.37926 q 1.16103,-3.664208 -1.63926,-4.5515 -2.56196,-0.811777 -3.44925,1.988512 -0.89673,2.83008 2.61852,3.943914 l 26.57296,8.419819 -3.83234,12.09487 -25.32177,-8.02338 q -3.93232,-1.24598 -6.189276,-2.81343 -2.27732,-1.60667 -3.8479,-4.20232 -1.733388,-2.909475 -2.114091,-6.570479 -0.380704,-3.661 0.704812,-7.086885 1.963368,-6.196385 7.464945,-9.075322 5.51102,-2.908726 11.67761,-0.954797 5.98786,1.897293 8.51286,6.860571 2.33093,4.541192 0.12214,11.512125 z" />
  <path
     id="path996"
     style="fill:#1a8870;stroke:none;stroke-width:1px;stroke-linecap:butt;stroke-linejoin:miter;stroke-opacity:1;fill-opacity:1"
     d="M 146.5957 75.013672 C 144.92379 75.236839 144.26545 78.167028 143.91016 84.537109 C 143.35271 94.531769 140.51881 103.90802 134.09961 117.00977 C 132.31331 120.65557 130.85156 123.97257 130.85156 124.37891 C 130.85156 124.78519 129.40931 127.30327 127.64648 129.97461 C 125.88365 132.64595 123.76213 136.03293 122.93164 137.50195 C 116.30672 149.22199 112.09286 155.69189 105.35547 164.48438 C 98.023639 174.05292 92.515029 179.84894 85.074219 185.82422 C 81.725639 188.51358 78.010206 191.5476 76.816406 192.56641 L 74.644531 194.41797 L 75.853516 196.95312 C 77.656296 200.73353 78.453986 200.64048 85.416016 195.82812 C 88.929446 193.39966 92.496567 190.94153 93.341797 190.36523 C 94.186677 189.78894 95.836576 188.37329 97.009766 187.2207 C 98.182959 186.06811 101.12407 183.39627 103.54492 181.2832 C 107.86879 177.50915 116.23758 168.48881 119.67578 163.89453 C 120.63627 162.61125 122.28526 160.5338 123.3418 159.2793 C 124.39833 158.02487 125.26367 156.7067 125.26367 156.34961 C 125.26367 155.99252 125.82488 155.09048 126.50977 154.3457 C 127.19469 153.60092 128.27157 151.89072 128.9043 150.54492 C 129.53703 149.19919 131.0898 146.68486 132.35352 144.95703 C 133.61724 143.2292 136.18323 138.82941 138.05664 135.17969 C 139.93004 131.52984 141.84797 128.07238 142.31836 127.49609 C 142.78875 126.9198 143.2066 124.30218 144.49219 122.43164 C 146.65821 119.28006 147.7899 114.88181 149.61133 111.36328 C 150.76238 109.28695 153.06342 104.93109 154.72461 101.68359 C 156.43358 98.342632 159.11006 94.433018 160.88867 92.679688 C 163.70196 89.906707 167.88019 84.399171 167.86133 83.488281 C 167.85733 83.296298 167.46141 82.364655 166.98242 81.417969 C 166.98242 81.417969 166.98242 81.416016 166.98242 81.416016 C 166.15456 79.780482 165.79575 79.692684 159.77539 79.669922 C 153.63798 79.646722 153.35805 79.576063 150.85352 77.376953 C 148.96668 75.720428 147.59885 74.879772 146.5957 75.013672 z " />
  <path
     id="path1001"
     style="fill:#66d4bd;stroke:none;stroke-width:1px;stroke-linecap:butt;stroke-linejoin:miter;stroke-opacity:1;fill-opacity:1"
     d="M 161.92188 40.548828 C 160.82963 40.539001 159.81279 41.164117 158.37891 42.419922 C 151.15744 48.743492 146.52714 69.161038 151.18359 74.146484 C 157.83743 81.269464 167.7829 79.054133 172.61328 69.373047 C 176.33278 61.919667 179.12148 45.493093 176.79297 44.751953 C 176.30646 44.597103 174.09013 44.341787 171.86914 44.185547 C 169.26856 44.002607 167.14976 43.399031 165.91797 42.488281 C 164.18084 41.203986 163.01412 40.558656 161.92188 40.548828 z " />
  <path
     id="path1008"
     style="fill:#214b90;stroke:none;stroke-width:1px;stroke-linecap:butt;stroke-linejoin:miter;stroke-opacity:1;fill-opacity:1"
     d="M 175.00195 15.291016 C 169.00434 15.435522 162.72571 21.336107 162.80078 30.853516 C 162.85878 38.213296 163.21213 39.164693 166.70703 41.376953 C 176.65559 47.673563 188.38065 36.252809 184.79297 23.761719 L 184.79492 23.761719 C 183.07882 17.786439 179.10558 15.192143 175.00195 15.291016 z " />
  <path
     id="path1013"
     style="fill:#46cbae;stroke:none;stroke-width:1px;stroke-linecap:butt;stroke-linejoin:miter;stroke-opacity:1;fill-opacity:1"
     d="M 159.42188 1.3046875 C 159.29761 1.2892575 159.19019 1.29789 159.10156 1.3320312 C 157.84629 1.8156212 157.90632 1.9915525 159.92188 3.7265625 C 161.11909 4.7571825 163.30086 7.6453085 164.76953 10.142578 C 168.73128 16.878988 172.42124 17.483586 168.88281 10.816406 C 166.91274 7.1045535 161.2859 1.5361373 159.42188 1.3046875 z M 154.8125 1.7617188 C 153.19567 1.7617188 153.86654 3.4480468 156.53516 6.0917969 C 157.96939 7.5126869 159.88034 10.184527 160.7832 12.029297 C 161.68606 13.874057 162.65251 15.835222 162.92969 16.388672 C 165.1597 20.841142 165.60684 16.089903 163.41016 11.283203 C 161.79249 7.7434335 156.3905 1.7617188 154.8125 1.7617188 z " />
  <path
     d="m 77.645471,182.8132 -1.350359,1.28578 q -0.441761,-0.46395 -0.796325,-0.12634 -0.324388,0.30887 0.01322,0.66344 0.341198,0.35833 0.786288,-0.0655 l 3.364582,-3.20367 1.458172,1.53141 -3.20616,3.05282 q -0.497898,0.47409 -0.908122,0.67771 -0.417588,0.20344 -0.9228,0.22422 -0.564121,0.0193 -1.129291,-0.21923 -0.565169,-0.23857 -0.978198,-0.67235 -0.747044,-0.78456 -0.725381,-1.81923 0.01807,-1.03843 0.798867,-1.78188 0.758162,-0.72191 1.685784,-0.69181 0.850395,0.0245 1.69082,0.90715 z"
     id="path916"
     inkscape:connector-curvature="0"
     style="font-style:normal;font-variant:normal;font-weight:normal;font-stretch:normal;font-size:10.6667px;line-height:1.25;font-family:'Bauhaus 93';-inkscape-font-specification:'Bauhaus 93, Normal';font-variant-ligatures:normal;font-variant-caps:normal;font-variant-numeric:normal;font-variant-east-asian:normal;letter-spacing:0px;word-spacing:0px;writing-mode:lr-tb" />
  <path
     d="m 71.220636,180.1065 1.508781,-1.43662 q 0.05709,0.22612 0.172017,0.34682 0.366339,0.38474 0.954764,-0.17554 l 1.784133,-1.69881 1.343243,1.41071 -2.055714,1.9574 q -0.814742,0.77577 -1.721356,0.7904 -0.910385,0.0182 -1.617922,-0.72485 -0.158029,-0.16597 -0.367946,-0.46951 z"
     id="path918"
     inkscape:connector-curvature="0"
     style="font-style:normal;font-variant:normal;font-weight:normal;font-stretch:normal;font-size:10.6667px;line-height:1.25;font-family:'Bauhaus 93';-inkscape-font-specification:'Bauhaus 93, Normal';font-variant-ligatures:normal;font-variant-caps:normal;font-variant-numeric:normal;font-variant-east-asian:normal;letter-spacing:0px;word-spacing:0px;writing-mode:lr-tb" />
  <path
     d="m 69.455676,173.95525 2.036413,2.1387 q -0.115503,0.20347 -0.251294,0.33277 -0.188597,0.17958 -0.434299,0.28408 L 70.1241,175.99412 q -0.346856,0.47411 0.03026,0.87016 0.251409,0.26404 0.635755,0.21451 0.380573,-0.0459 0.731365,-0.37995 0.365879,-0.34838 0.441351,-0.7223 0.07188,-0.37768 -0.175937,-0.63795 -0.201127,-0.21123 -0.599118,-0.20624 l 0.200619,-1.72287 q 0.97646,0.14181 1.630123,0.82831 0.797326,0.83737 0.77763,1.94208 -0.0197,1.1047 -0.849525,1.89485 -0.826058,0.78655 -1.941539,0.75554 -1.119073,-0.0348 -1.916399,-0.87216 -0.779368,-0.81851 -0.749078,-1.90454 0.02293,-1.08621 0.837669,-1.86199 0.08298,-0.079 0.278402,-0.23632 z"
     id="path920"
     inkscape:connector-curvature="0"
     style="font-style:normal;font-variant:normal;font-weight:normal;font-stretch:normal;font-size:10.6667px;line-height:1.25;font-family:'Bauhaus 93';-inkscape-font-specification:'Bauhaus 93, Normal';font-variant-ligatures:normal;font-variant-caps:normal;font-variant-numeric:normal;font-variant-east-asian:normal;letter-spacing:0px;word-spacing:0px;writing-mode:lr-tb" />
  <path
     d="m 63.193577,174.38022 -1.343242,-1.41071 3.134492,-2.98459 q 0.863777,-0.82246 1.837925,-0.88701 0.56089,-0.0378 1.130012,0.18978 0.565531,0.22384 0.967785,0.6463 0.800917,0.84114 0.784633,1.95698 -0.01628,1.11585 -0.838571,1.8988 -0.795882,0.75782 -1.922679,0.73759 -1.126797,-0.0202 -1.873841,-0.80481 -0.118522,-0.12447 -0.336524,-0.39874 l 1.554044,-1.47972 q 0.02942,0.3028 0.194633,0.47631 0.20831,0.21878 0.52135,0.22276 0.305676,0.004 0.531993,-0.21169 0.218773,-0.20831 0.222758,-0.52135 2.13e-4,-0.30945 -0.21528,-0.53576 -0.517184,-0.54316 -1.267803,0.17156 z"
     id="path922"
     inkscape:connector-curvature="0"
     style="font-style:normal;font-variant:normal;font-weight:normal;font-stretch:normal;font-size:10.6667px;line-height:1.25;font-family:'Bauhaus 93';-inkscape-font-specification:'Bauhaus 93, Normal';font-variant-ligatures:normal;font-variant-caps:normal;font-variant-numeric:normal;font-variant-east-asian:normal;letter-spacing:0px;word-spacing:0px;writing-mode:lr-tb" />
  <path
     d="m 61.191226,169.49781 3.760636,-3.58079 1.343243,1.41071 -3.760637,3.58079 z m -1.01049,2.29982 q -0.272958,-0.28667 -0.266808,-0.68807 -0.0012,-0.40158 0.274139,-0.66376 0.294212,-0.28015 0.673162,-0.25981 0.375359,0.0166 0.669866,0.32586 0.294508,0.3093 0.296263,0.6888 -0.0018,0.37572 -0.296049,0.65586 -0.275352,0.26218 -0.672802,0.24508 -0.404812,-0.0173 -0.677771,-0.30396 z"
     id="path924"
     inkscape:connector-curvature="0"
     style="font-style:normal;font-variant:normal;font-weight:normal;font-stretch:normal;font-size:10.6667px;line-height:1.25;font-family:'Bauhaus 93';-inkscape-font-specification:'Bauhaus 93, Normal';font-variant-ligatures:normal;font-variant-caps:normal;font-variant-numeric:normal;font-variant-east-asian:normal;letter-spacing:0px;word-spacing:0px;writing-mode:lr-tb" />
  <path
     d="m 60.225174,164.41975 -1.385275,-1.34912 q 0.872207,-0.71542 1.917284,-0.66772 1.045077,0.0477 1.792121,0.83228 0.790142,0.82983 0.75895,1.95267 -0.03478,1.11908 -0.872157,1.9164 -0.795882,0.75782 -1.911183,0.71944 -1.115301,-0.0384 -1.883894,-0.84557 -0.671621,-0.70535 -0.740123,-1.66855 -0.0685,-0.96319 0.49606,-1.75246 l 1.414008,1.37929 q -0.06542,0.41468 0.203948,0.69758 0.229859,0.2414 0.535535,0.24521 0.305676,0.004 0.547081,-0.22606 0.245177,-0.23345 0.256706,-0.55367 0.0079,-0.324 -0.225514,-0.56917 -0.341198,-0.35834 -0.903547,-0.11055 z"
     id="path926"
     inkscape:connector-curvature="0"
     style="font-style:normal;font-variant:normal;font-weight:normal;font-stretch:normal;font-size:10.6667px;line-height:1.25;font-family:'Bauhaus 93';-inkscape-font-specification:'Bauhaus 93, Normal';font-variant-ligatures:normal;font-variant-caps:normal;font-variant-numeric:normal;font-variant-east-asian:normal;letter-spacing:0px;word-spacing:0px;writing-mode:lr-tb" />
  <path
     d="m 52.702237,161.27303 1.895849,-0.60351 -0.265418,-0.83378 1.960367,-0.62405 0.265418,0.83378 q 0.590592,-0.188 0.75547,-0.44273 0.163298,-0.25968 0.0053,-0.75598 l 1.950441,-0.62089 q 0.05078,0.14235 0.0729,0.21183 0.200644,0.6303 0.08635,1.28432 -0.115869,0.64907 -0.509696,1.14611 -0.504353,0.63062 -1.561462,0.96713 l -4.06466,1.29391 z"
     id="path928"
     inkscape:connector-curvature="0"
     style="font-style:normal;font-variant:normal;font-weight:normal;font-stretch:normal;font-size:10.6667px;line-height:1.25;font-family:'Bauhaus 93';-inkscape-font-specification:'Bauhaus 93, Normal';font-variant-ligatures:normal;font-variant-caps:normal;font-variant-numeric:normal;font-variant-east-asian:normal;letter-spacing:0px;word-spacing:0px;writing-mode:lr-tb" />
  <path
     d="m 55.194181,153.43224 4.787204,2.01174 -0.754652,1.7958 -4.787204,-2.01174 z m -2.512024,-0.005 q 0.153352,-0.36492 0.523617,-0.52005 0.367481,-0.16195 0.717998,-0.0146 0.374526,0.15739 0.507664,0.51276 0.135155,0.35057 -0.0303,0.7443 -0.165459,0.39374 -0.512482,0.54733 -0.345005,0.1488 -0.719531,-0.009 -0.350517,-0.1473 -0.494024,-0.51833 -0.146291,-0.37785 0.0071,-0.74277 z"
     id="path930"
     inkscape:connector-curvature="0"
     style="font-style:normal;font-variant:normal;font-weight:normal;font-stretch:normal;font-size:10.6667px;line-height:1.25;font-family:'Bauhaus 93';-inkscape-font-specification:'Bauhaus 93, Normal';font-variant-ligatures:normal;font-variant-caps:normal;font-variant-numeric:normal;font-variant-east-asian:normal;letter-spacing:0px;word-spacing:0px;writing-mode:lr-tb" />
  <path
     d="m 65.007074,152.52257 -1.781848,0.78703 -1.18476,-2.6823 q -0.180975,-0.40973 -0.51924,-0.26032 -0.333501,0.14731 -0.152526,0.55704 l 1.18476,2.6823 -1.781847,0.78703 -1.17003,-2.64895 q -0.410352,-0.92904 -0.07564,-1.83415 0.332609,-0.90988 1.223533,-1.3034 1.01956,-0.45033 1.960331,0.0167 0.735823,0.36394 1.190367,1.39303 z"
     id="path932"
     inkscape:connector-curvature="0"
     style="font-style:normal;font-variant:normal;font-weight:normal;font-stretch:normal;font-size:10.6667px;line-height:1.25;font-family:'Bauhaus 93';-inkscape-font-specification:'Bauhaus 93, Normal';font-variant-ligatures:normal;font-variant-caps:normal;font-variant-numeric:normal;font-variant-east-asian:normal;letter-spacing:0px;word-spacing:0px;writing-mode:lr-tb" />
  <path
     d="m 70.621024,151.29306 -1.127685,1.38556 q -0.425834,-0.14511 -0.72476,-0.3884 -0.731156,-0.59508 -0.789721,-1.56275 -0.05453,-0.96438 0.596441,-1.76421 0.70357,-0.86446 1.796833,-0.96183 1.093264,-0.0974 1.981962,0.62593 0.472626,0.38467 0.750334,0.92631 0.277708,0.54164 0.264391,1.06132 -0.01866,0.86452 -0.837297,1.87037 l -1.078369,1.32496 q -0.877819,1.07856 -2.037589,1.24939 -1.159018,0.17816 -2.140626,-0.62075 -0.298925,-0.24329 -0.633748,-0.76427 l 1.117822,-1.37344 q 0.163378,0.40158 0.466343,0.64816 0.407993,0.33206 0.850445,0.24224 0.439163,-0.0858 0.846839,-0.58669 l 1.232892,-1.51483 q 0.51617,-0.63421 0.0031,-1.05175 -0.218135,-0.17753 -0.52184,-0.14267 -0.296377,0.0341 -0.473914,0.25225 -0.187399,0.23025 -0.15883,0.50869 0.03261,0.28172 0.262863,0.46912 0.153502,0.12494 0.354065,0.16729 z"
     id="path934"
     inkscape:connector-curvature="0"
     style="font-style:normal;font-variant:normal;font-weight:normal;font-stretch:normal;font-size:10.6667px;line-height:1.25;font-family:'Bauhaus 93';-inkscape-font-specification:'Bauhaus 93, Normal';font-variant-ligatures:normal;font-variant-caps:normal;font-variant-numeric:normal;font-variant-east-asian:normal;letter-spacing:0px;word-spacing:0px;writing-mode:lr-tb" />
  <text
     transform="rotate(-140.16309)"
     id="text897"
     y="-51.660358"
     x="-181.92566"
     style="font-style:normal;font-variant:normal;font-weight:normal;font-stretch:normal;font-size:10.6667px;line-height:1.25;font-family:'Bauhaus 93';-inkscape-font-specification:'Bauhaus 93, Normal';font-variant-ligatures:normal;font-variant-caps:normal;font-variant-numeric:normal;font-variant-east-asian:normal;letter-spacing:0px;word-spacing:0px;writing-mode:lr-tb"
     xml:space="preserve"><tspan
       y="-51.660358"
       x="-181.92566"
       id="tspan895"
       sodipodi:role="line">Insect</tspan></text>
  <text
     transform="rotate(-57.632159)"
     id="text901"
     y="173.07466"
     x="-57.287392"
     style="font-style:normal;font-variant:normal;font-weight:normal;font-stretch:normal;font-size:10.6667px;line-height:1.25;font-family:'Bauhaus 93';-inkscape-font-specification:'Bauhaus 93, Normal';font-variant-ligatures:normal;font-variant-caps:normal;font-variant-numeric:normal;font-variant-east-asian:normal;letter-spacing:0px;word-spacing:0px;writing-mode:lr-tb"
     xml:space="preserve"><tspan
       y="173.07466"
       x="-57.287392"
       id="tspan899"
       sodipodi:role="line">Pest</tspan></text>
  <g
     style="font-style:normal;font-variant:normal;font-weight:normal;font-stretch:normal;font-size:10.6667px;line-height:1.25;font-family:'Bauhaus 93';-inkscape-font-specification:'Bauhaus 93, Normal';font-variant-ligatures:normal;font-variant-caps:normal;font-variant-numeric:normal;font-variant-east-asian:normal;letter-spacing:0px;word-spacing:0px;writing-mode:lr-tb"
     id="text905"
     aria-label="Phenology">
    <path
       id="path952"
       d="m 129.42605,110.46418 -0.60853,1.76249 q -0.60555,-0.20908 -0.76534,0.2537 -0.14618,0.42339 0.3166,0.58318 0.4677,0.16148 0.66828,-0.41946 l 1.51622,-4.39146 1.99881,0.69012 -1.44484,4.18469 q -0.22437,0.64986 -0.49516,1.01921 -0.27741,0.37257 -0.71657,0.62318 -0.49216,0.27639 -1.10375,0.3242 -0.61159,0.0478 -1.17776,-0.14767 -1.02401,-0.35356 -1.48021,-1.28247 -0.46111,-0.93062 -0.10925,-1.94972 0.34166,-0.98955 1.17937,-1.38907 0.76657,-0.36899 1.91859,0.0288 z" />
    <path
       id="path954"
       d="m 122.71549,113.05301 0.71925,-2.04933 q -0.58588,0.17524 -1.05276,0.0114 -0.70768,-0.24837 -0.94111,-0.90436 -0.23835,-0.65771 0.0669,-1.52757 l 1.09008,-3.10594 1.83801,0.64508 -0.90898,2.58992 q -0.11039,0.31453 -0.0795,0.44679 0.0259,0.13055 0.2176,0.19781 0.30961,0.10867 0.47002,-0.34838 l 0.93485,-2.66363 1.83801,0.64508 -2.35438,6.70823 z" />
    <path
       id="path957"
       d="m 115.88731,105.51069 2.78169,0.99155 q -0.0114,0.23369 -0.0744,0.41031 -0.0874,0.2453 -0.25968,0.44931 l -0.93214,-0.33227 q -0.096,0.57954 0.41913,0.76316 0.34342,0.12241 0.66421,-0.095 0.31904,-0.2125 0.48168,-0.66876 0.16963,-0.47588 0.0685,-0.84369 -0.10604,-0.36956 -0.44455,-0.49022 -0.27473,-0.0979 -0.62778,0.0859 l -0.59728,-1.62843 q 0.93559,-0.31343 1.82848,0.005 1.08913,0.38823 1.56937,1.38328 0.48023,0.99506 0.0955,2.07438 -0.38298,1.07441 -1.39275,1.5494 -1.01468,0.47324 -2.10381,0.085 -1.0646,-0.37948 -1.52696,-1.36264 -0.46902,-0.98 -0.0913,-2.03969 0.0385,-0.10793 0.14204,-0.33642 z" />
    <path
       id="path959"
       d="m 111.53832,101.50811 1.83114,0.66432 -1.00003,2.7565 q -0.15276,0.42107 0.19487,0.54718 0.34272,0.12434 0.49548,-0.29673 l 1.00003,-2.7565 1.83114,0.66432 -0.98759,2.72223 q -0.34637,0.95474 -1.21421,1.37679 -0.86962,0.42694 -1.78519,0.0948 -1.04776,-0.38012 -1.40404,-1.36815 -0.27958,-0.77183 0.10409,-1.82939 z" />
    <path
       id="path961"
       d="m 106.30874,105.23032 q -1.03534,-0.38375 -1.49583,-1.40428 -0.46719,-1.01746 -0.0816,-2.05768 0.39098,-1.05488 1.4182,-1.51844 1.02234,-0.465376 2.0821,-0.0726 1.05977,0.39279 1.53672,1.41387 0.47514,1.02596 0.086,2.07595 -0.39642,1.06953 -1.41821,1.51844 -1.02361,0.4538 -2.12732,0.0447 z m 0.71677,-1.78398 q 0.29302,0.1086 0.57778,-0.0303 0.28295,-0.13397 0.39698,-0.44164 0.11223,-0.30279 -0.0132,-0.5937 -0.13035,-0.29272 -0.41849,-0.39951 -0.29302,-0.10861 -0.57778,0.0303 -0.28965,0.13705 -0.40187,0.43984 -0.11404,0.30767 0.0132,0.59369 0.12547,0.29091 0.42338,0.40133 z" />
    <path
       id="path963"
       d="m 98.600746,103.36976 4.657274,-5.371531 1.47176,1.276058 -4.65727,5.371533 z" />
    <path
       id="path965"
       d="m 97.523245,94.581888 q -0.05055,-1.103012 0.709484,-1.925131 0.754595,-0.827084 1.862811,-0.877874 1.12382,-0.05151 1.95138,0.713494 0.82733,0.759798 0.87907,1.888825 0.0517,1.129026 -0.70237,1.966516 -0.75932,0.837728 -1.87795,0.888995 -1.139428,0.05222 -1.95138,-0.713495 -0.817154,-0.765477 -0.871045,-1.94133 z m 1.922251,-0.03596 q 0.01431,0.312173 0.253249,0.520202 0.233739,0.208268 0.561525,0.193246 0.32258,-0.01478 0.54149,-0.243797 0.21867,-0.234217 0.2046,-0.541187 -0.0143,-0.312173 -0.25325,-0.520203 -0.23918,-0.213232 -0.56176,-0.198448 -0.327778,0.01502 -0.541488,0.243797 -0.218912,0.229013 -0.204366,0.54639 z" />
    <path
       id="path967"
       d="m 102.76608,86.995099 1.3181,1.205852 q -0.16948,0.416738 -0.42964,0.701109 -0.63632,0.695554 -1.60576,0.698115 -0.96592,-0.0013 -1.7268,-0.697372 -0.822368,-0.752339 -0.85641,-1.849402 -0.03404,-1.097062 0.73939,-1.942488 0.41133,-0.449613 0.96811,-0.695563 0.55678,-0.245951 1.07482,-0.202632 0.862,0.06857 1.81887,0.943959 l 1.26045,1.153118 q 1.02604,0.938666 1.12958,2.106368 0.1109,1.167375 -0.74339,2.101186 -0.26015,0.28437 -0.7996,0.588534 l -1.30657,-1.195305 q 0.41035,-0.139903 0.67402,-0.428116 0.35508,-0.388128 0.29097,-0.835029 -0.0603,-0.443386 -0.53679,-0.879321 l -1.44106,-1.318351 q -0.60333,-0.55195 -1.04981,-0.06391 -0.18984,0.207514 -0.17258,0.512725 0.0169,0.297854 0.22444,0.487696 0.21905,0.20039 0.49867,0.187955 0.28313,-0.01628 0.48352,-0.23532 0.1336,-0.146028 0.18747,-0.343809 z" />
    <path
       id="path969"
       d="m 108.15423,89.202054 -0.0936,-1.690121 q 0.40445,0.144513 0.70087,0.128089 0.94647,-0.05244 1.16822,-1.134079 -0.49293,0.32986 -0.98176,0.356946 -0.72285,0.04005 -1.22057,-0.469654 -0.498,-0.514905 -0.5441,-1.346965 l -0.18067,-3.260634 1.94494,-0.107766 0.15445,2.7874 q 0.0256,0.462833 0.41047,0.44151 0.36923,-0.02046 0.34099,-0.530095 l -0.15185,-2.740596 1.94494,-0.107766 0.25644,4.628332 q 0.0718,1.294892 -0.61221,2.13089 -0.81602,0.994588 -2.04851,1.062878 -0.54084,0.02997 -1.08801,-0.148369 z" />
  </g>
</svg>
